<mxfile host="65bd71144e">
    <diagram id="WJnVAwbH31ghWJ0-0Aa_" name="Page-1">
        <mxGraphModel dx="632" dy="367" grid="1" gridSize="10" guides="1" tooltips="1" connect="1" arrows="1" fold="1" page="1" pageScale="1" pageWidth="444" pageHeight="312" math="0" shadow="0">
            <root>
                <mxCell id="0"/>
                <mxCell id="1" parent="0"/>
                <mxCell id="XAXn_dpVB3Lyqn0WU6YM-5" value="" style="rounded=1;whiteSpace=wrap;html=1;sketch=0;fontFamily=Helvetica;fontSize=11;fillColor=#FCEBDD;strokeColor=none;shadow=0;glass=0;" parent="1" vertex="1">
                    <mxGeometry x="337" y="1" width="106" height="279" as="geometry"/>
                </mxCell>
                <mxCell id="XAXn_dpVB3Lyqn0WU6YM-4" value="" style="ellipse;whiteSpace=wrap;html=1;rounded=0;dashed=1;sketch=0;fontFamily=Helvetica;fontSize=11;strokeWidth=1;strokeColor=none;" parent="1" vertex="1">
                    <mxGeometry x="342" y="160" width="100" height="116" as="geometry"/>
                </mxCell>
                <mxCell id="CqRwOnlm2M2Rv3KDCL8K-269" value="" style="rounded=1;whiteSpace=wrap;html=1;sketch=0;fontFamily=Helvetica;fontSize=11;dashed=1;fillColor=#E2EBF3;fontColor=#333333;strokeColor=none;" parent="1" vertex="1">
                    <mxGeometry x="1" y="1" width="329" height="279" as="geometry"/>
                </mxCell>
                <mxCell id="43" value="" style="rounded=1;whiteSpace=wrap;html=1;dashed=1;fillColor=#e1d5e7;strokeColor=none;" parent="1" vertex="1">
                    <mxGeometry x="203" y="211" width="94" height="58" as="geometry"/>
                </mxCell>
                <mxCell id="42" value="" style="rounded=1;whiteSpace=wrap;html=1;dashed=1;fillColor=#e1d5e7;strokeColor=none;" parent="1" vertex="1">
                    <mxGeometry x="203" y="146" width="94" height="58" as="geometry"/>
                </mxCell>
                <mxCell id="41" value="" style="rounded=1;whiteSpace=wrap;html=1;dashed=1;fillColor=#e1d5e7;strokeColor=none;" parent="1" vertex="1">
                    <mxGeometry x="203" y="81" width="94" height="58" as="geometry"/>
                </mxCell>
                <mxCell id="CqRwOnlm2M2Rv3KDCL8K-288" value="" style="rounded=1;whiteSpace=wrap;html=1;sketch=0;fontFamily=Helvetica;fontSize=11;fillColor=#FFFFFF;strokeColor=none;fontColor=#333333;" parent="1" vertex="1">
                    <mxGeometry x="12" y="41" width="168" height="210" as="geometry"/>
                </mxCell>
                <mxCell id="35" value="" style="rounded=1;whiteSpace=wrap;html=1;dashed=1;fillColor=#e1d5e7;strokeColor=none;" parent="1" vertex="1">
                    <mxGeometry x="203" y="16" width="94" height="58" as="geometry"/>
                </mxCell>
                <mxCell id="CqRwOnlm2M2Rv3KDCL8K-53" value="" style="shape=table;whiteSpace=wrap;startSize=0;container=1;collapsible=0;childLayout=tableLayout;html=1;" parent="1" vertex="1">
                    <mxGeometry x="44" y="105" width="120" height="116" as="geometry"/>
                </mxCell>
                <mxCell id="CqRwOnlm2M2Rv3KDCL8K-89" style="shape=tableRow;horizontal=0;startSize=0;swimlaneHead=0;swimlaneBody=0;top=0;left=0;bottom=0;right=0;collapsible=0;dropTarget=0;fillColor=none;points=[[0,0.5],[1,0.5]];portConstraint=eastwest;" parent="CqRwOnlm2M2Rv3KDCL8K-53" vertex="1">
                    <mxGeometry width="120" height="27" as="geometry"/>
                </mxCell>
                <mxCell id="CqRwOnlm2M2Rv3KDCL8K-90" style="shape=partialRectangle;html=1;whiteSpace=wrap;connectable=0;top=0;left=0;bottom=0;right=0;overflow=hidden;" parent="CqRwOnlm2M2Rv3KDCL8K-89" vertex="1">
                    <mxGeometry width="30" height="27" as="geometry">
                        <mxRectangle width="30" height="27" as="alternateBounds"/>
                    </mxGeometry>
                </mxCell>
                <mxCell id="CqRwOnlm2M2Rv3KDCL8K-91" value="a" style="shape=partialRectangle;html=1;whiteSpace=wrap;connectable=0;top=0;left=0;bottom=0;right=0;overflow=hidden;fillColor=#E2EBF3;strokeColor=#006EAF;fontColor=#ffffff;" parent="CqRwOnlm2M2Rv3KDCL8K-89" vertex="1">
                    <mxGeometry x="30" width="30" height="27" as="geometry">
                        <mxRectangle width="30" height="27" as="alternateBounds"/>
                    </mxGeometry>
                </mxCell>
                <mxCell id="CqRwOnlm2M2Rv3KDCL8K-92" value="b" style="shape=partialRectangle;html=1;whiteSpace=wrap;connectable=0;top=0;left=0;bottom=0;right=0;overflow=hidden;fillColor=#e2ebf3;strokeColor=#006EAF;fontColor=#ffffff;" parent="CqRwOnlm2M2Rv3KDCL8K-89" vertex="1">
                    <mxGeometry x="60" width="30" height="27" as="geometry">
                        <mxRectangle width="30" height="27" as="alternateBounds"/>
                    </mxGeometry>
                </mxCell>
                <mxCell id="CqRwOnlm2M2Rv3KDCL8K-93" value="c" style="shape=partialRectangle;html=1;whiteSpace=wrap;connectable=0;top=0;left=0;bottom=0;right=0;overflow=hidden;fillColor=#E2EBF3;strokeColor=#006EAF;fontColor=#ffffff;" parent="CqRwOnlm2M2Rv3KDCL8K-89" vertex="1">
                    <mxGeometry x="90" width="30" height="27" as="geometry">
                        <mxRectangle width="30" height="27" as="alternateBounds"/>
                    </mxGeometry>
                </mxCell>
                <mxCell id="CqRwOnlm2M2Rv3KDCL8K-54" value="" style="shape=tableRow;horizontal=0;startSize=0;swimlaneHead=0;swimlaneBody=0;top=0;left=0;bottom=0;right=0;collapsible=0;dropTarget=0;fillColor=none;points=[[0,0.5],[1,0.5]];portConstraint=eastwest;" parent="CqRwOnlm2M2Rv3KDCL8K-53" vertex="1">
                    <mxGeometry y="27" width="120" height="29" as="geometry"/>
                </mxCell>
                <mxCell id="CqRwOnlm2M2Rv3KDCL8K-55" value="a" style="shape=partialRectangle;html=1;whiteSpace=wrap;connectable=0;top=0;left=0;bottom=0;right=0;overflow=hidden;fillColor=#e2ebf3;strokeColor=#36393d;" parent="CqRwOnlm2M2Rv3KDCL8K-54" vertex="1">
                    <mxGeometry width="30" height="29" as="geometry">
                        <mxRectangle width="30" height="29" as="alternateBounds"/>
                    </mxGeometry>
                </mxCell>
                <mxCell id="CqRwOnlm2M2Rv3KDCL8K-56" value="-" style="shape=partialRectangle;html=1;whiteSpace=wrap;connectable=0;top=0;left=0;bottom=0;right=0;overflow=hidden;" parent="CqRwOnlm2M2Rv3KDCL8K-54" vertex="1">
                    <mxGeometry x="30" width="30" height="29" as="geometry">
                        <mxRectangle width="30" height="29" as="alternateBounds"/>
                    </mxGeometry>
                </mxCell>
                <mxCell id="CqRwOnlm2M2Rv3KDCL8K-66" value="6" style="shape=partialRectangle;html=1;whiteSpace=wrap;connectable=0;top=0;left=0;bottom=0;right=0;overflow=hidden;" parent="CqRwOnlm2M2Rv3KDCL8K-54" vertex="1">
                    <mxGeometry x="60" width="30" height="29" as="geometry">
                        <mxRectangle width="30" height="29" as="alternateBounds"/>
                    </mxGeometry>
                </mxCell>
                <mxCell id="CqRwOnlm2M2Rv3KDCL8K-69" value="9" style="shape=partialRectangle;html=1;whiteSpace=wrap;connectable=0;top=0;left=0;bottom=0;right=0;overflow=hidden;" parent="CqRwOnlm2M2Rv3KDCL8K-54" vertex="1">
                    <mxGeometry x="90" width="30" height="29" as="geometry">
                        <mxRectangle width="30" height="29" as="alternateBounds"/>
                    </mxGeometry>
                </mxCell>
                <mxCell id="CqRwOnlm2M2Rv3KDCL8K-58" value="" style="shape=tableRow;horizontal=0;startSize=0;swimlaneHead=0;swimlaneBody=0;top=0;left=0;bottom=0;right=0;collapsible=0;dropTarget=0;fillColor=none;points=[[0,0.5],[1,0.5]];portConstraint=eastwest;" parent="CqRwOnlm2M2Rv3KDCL8K-53" vertex="1">
                    <mxGeometry y="56" width="120" height="30" as="geometry"/>
                </mxCell>
                <mxCell id="CqRwOnlm2M2Rv3KDCL8K-59" value="b" style="shape=partialRectangle;html=1;whiteSpace=wrap;connectable=0;top=0;left=0;bottom=0;right=0;overflow=hidden;fillColor=#e2ebf3;strokeColor=#36393d;" parent="CqRwOnlm2M2Rv3KDCL8K-58" vertex="1">
                    <mxGeometry width="30" height="30" as="geometry">
                        <mxRectangle width="30" height="30" as="alternateBounds"/>
                    </mxGeometry>
                </mxCell>
                <mxCell id="CqRwOnlm2M2Rv3KDCL8K-60" value="6" style="shape=partialRectangle;html=1;whiteSpace=wrap;connectable=0;top=0;left=0;bottom=0;right=0;overflow=hidden;" parent="CqRwOnlm2M2Rv3KDCL8K-58" vertex="1">
                    <mxGeometry x="30" width="30" height="30" as="geometry">
                        <mxRectangle width="30" height="30" as="alternateBounds"/>
                    </mxGeometry>
                </mxCell>
                <mxCell id="CqRwOnlm2M2Rv3KDCL8K-67" value="-" style="shape=partialRectangle;html=1;whiteSpace=wrap;connectable=0;top=0;left=0;bottom=0;right=0;overflow=hidden;" parent="CqRwOnlm2M2Rv3KDCL8K-58" vertex="1">
                    <mxGeometry x="60" width="30" height="30" as="geometry">
                        <mxRectangle width="30" height="30" as="alternateBounds"/>
                    </mxGeometry>
                </mxCell>
                <mxCell id="CqRwOnlm2M2Rv3KDCL8K-70" value="4" style="shape=partialRectangle;html=1;whiteSpace=wrap;connectable=0;top=0;left=0;bottom=0;right=0;overflow=hidden;" parent="CqRwOnlm2M2Rv3KDCL8K-58" vertex="1">
                    <mxGeometry x="90" width="30" height="30" as="geometry">
                        <mxRectangle width="30" height="30" as="alternateBounds"/>
                    </mxGeometry>
                </mxCell>
                <mxCell id="CqRwOnlm2M2Rv3KDCL8K-75" style="shape=tableRow;horizontal=0;startSize=0;swimlaneHead=0;swimlaneBody=0;top=0;left=0;bottom=0;right=0;collapsible=0;dropTarget=0;fillColor=none;points=[[0,0.5],[1,0.5]];portConstraint=eastwest;" parent="CqRwOnlm2M2Rv3KDCL8K-53" vertex="1">
                    <mxGeometry y="86" width="120" height="30" as="geometry"/>
                </mxCell>
                <mxCell id="CqRwOnlm2M2Rv3KDCL8K-76" value="c" style="shape=partialRectangle;html=1;whiteSpace=wrap;connectable=0;top=0;left=0;bottom=0;right=0;overflow=hidden;fillColor=#e2ebf3;strokeColor=#36393d;" parent="CqRwOnlm2M2Rv3KDCL8K-75" vertex="1">
                    <mxGeometry width="30" height="30" as="geometry">
                        <mxRectangle width="30" height="30" as="alternateBounds"/>
                    </mxGeometry>
                </mxCell>
                <mxCell id="CqRwOnlm2M2Rv3KDCL8K-77" value="9" style="shape=partialRectangle;html=1;whiteSpace=wrap;connectable=0;top=0;left=0;bottom=0;right=0;overflow=hidden;pointerEvents=1;" parent="CqRwOnlm2M2Rv3KDCL8K-75" vertex="1">
                    <mxGeometry x="30" width="30" height="30" as="geometry">
                        <mxRectangle width="30" height="30" as="alternateBounds"/>
                    </mxGeometry>
                </mxCell>
                <mxCell id="CqRwOnlm2M2Rv3KDCL8K-78" value="4" style="shape=partialRectangle;html=1;whiteSpace=wrap;connectable=0;top=0;left=0;bottom=0;right=0;overflow=hidden;" parent="CqRwOnlm2M2Rv3KDCL8K-75" vertex="1">
                    <mxGeometry x="60" width="30" height="30" as="geometry">
                        <mxRectangle width="30" height="30" as="alternateBounds"/>
                    </mxGeometry>
                </mxCell>
                <mxCell id="CqRwOnlm2M2Rv3KDCL8K-79" value="-" style="shape=partialRectangle;html=1;whiteSpace=wrap;connectable=0;top=0;left=0;bottom=0;right=0;overflow=hidden;" parent="CqRwOnlm2M2Rv3KDCL8K-75" vertex="1">
                    <mxGeometry x="90" width="30" height="30" as="geometry">
                        <mxRectangle width="30" height="30" as="alternateBounds"/>
                    </mxGeometry>
                </mxCell>
                <mxCell id="CqRwOnlm2M2Rv3KDCL8K-107" value="" style="endArrow=classic;html=1;sketch=0;rounded=1;strokeColor=#82b366;dashed=1;fillColor=#d5e8d4;entryX=0;entryY=0.75;entryDx=0;entryDy=0;" parent="1" target="35" edge="1">
                    <mxGeometry width="50" height="50" relative="1" as="geometry">
                        <mxPoint x="169" y="143" as="sourcePoint"/>
                        <mxPoint x="198" y="62.5" as="targetPoint"/>
                    </mxGeometry>
                </mxCell>
                <mxCell id="CqRwOnlm2M2Rv3KDCL8K-108" value="" style="endArrow=classic;html=1;sketch=0;rounded=1;strokeColor=#82b366;dashed=1;fillColor=#d5e8d4;entryX=0;entryY=0.25;entryDx=0;entryDy=0;" parent="1" target="42" edge="1">
                    <mxGeometry width="50" height="50" relative="1" as="geometry">
                        <mxPoint x="169" y="143" as="sourcePoint"/>
                        <mxPoint x="198" y="163.5" as="targetPoint"/>
                    </mxGeometry>
                </mxCell>
                <mxCell id="CqRwOnlm2M2Rv3KDCL8K-109" value="" style="endArrow=classic;html=1;sketch=0;rounded=1;strokeColor=#82b366;dashed=1;fillColor=#d5e8d4;entryX=0;entryY=0.25;entryDx=0;entryDy=0;" parent="1" target="43" edge="1">
                    <mxGeometry width="50" height="50" relative="1" as="geometry">
                        <mxPoint x="169" y="143" as="sourcePoint"/>
                        <mxPoint x="203" y="228.5" as="targetPoint"/>
                    </mxGeometry>
                </mxCell>
                <mxCell id="CqRwOnlm2M2Rv3KDCL8K-128" style="edgeStyle=none;rounded=1;sketch=0;orthogonalLoop=1;jettySize=auto;html=1;strokeColor=#ACB5C2;dashed=1;endArrow=none;endFill=0;" parent="1" source="CqRwOnlm2M2Rv3KDCL8K-110" edge="1">
                    <mxGeometry relative="1" as="geometry">
                        <mxPoint x="221" y="55.5" as="targetPoint"/>
                    </mxGeometry>
                </mxCell>
                <mxCell id="CqRwOnlm2M2Rv3KDCL8K-131" style="edgeStyle=none;rounded=1;sketch=0;orthogonalLoop=1;jettySize=auto;html=1;entryX=0.197;entryY=0.014;entryDx=0;entryDy=0;entryPerimeter=0;dashed=1;endArrow=none;endFill=0;strokeColor=#ACB5C2;" parent="1" source="CqRwOnlm2M2Rv3KDCL8K-110" target="CqRwOnlm2M2Rv3KDCL8K-111" edge="1">
                    <mxGeometry relative="1" as="geometry"/>
                </mxCell>
                <mxCell id="CqRwOnlm2M2Rv3KDCL8K-110" value="" style="verticalLabelPosition=bottom;verticalAlign=top;html=1;shape=mxgraph.basic.polygon;polyCoords=[[0.25,0],[0.75,0],[1,0.25],[1,0.75],[0.75,1],[0.25,1],[0,0.75],[0,0.25]];polyline=0;rounded=0;sketch=0;strokeWidth=1;gradientColor=none;fillColor=#e2ebf3;" parent="1" vertex="1">
                    <mxGeometry x="211" y="17.5" width="18" height="18" as="geometry"/>
                </mxCell>
                <mxCell id="CqRwOnlm2M2Rv3KDCL8K-111" value="" style="verticalLabelPosition=bottom;verticalAlign=top;html=1;shape=mxgraph.basic.polygon;polyCoords=[[0.25,0],[0.75,0],[1,0.25],[1,0.75],[0.75,1],[0.25,1],[0,0.75],[0,0.25]];polyline=0;rounded=0;sketch=0;strokeWidth=1;gradientColor=none;fillColor=#e2ebf3;" parent="1" vertex="1">
                    <mxGeometry x="251" y="54.5" width="18" height="18" as="geometry"/>
                </mxCell>
                <mxCell id="CqRwOnlm2M2Rv3KDCL8K-129" style="edgeStyle=none;rounded=1;sketch=0;orthogonalLoop=1;jettySize=auto;html=1;entryX=-0.011;entryY=0.483;entryDx=0;entryDy=0;entryPerimeter=0;dashed=1;endArrow=none;endFill=0;strokeColor=#ACB5C2;" parent="1" source="CqRwOnlm2M2Rv3KDCL8K-112" target="CqRwOnlm2M2Rv3KDCL8K-111" edge="1">
                    <mxGeometry relative="1" as="geometry"/>
                </mxCell>
                <mxCell id="CqRwOnlm2M2Rv3KDCL8K-112" value="" style="verticalLabelPosition=bottom;verticalAlign=top;html=1;shape=mxgraph.basic.polygon;polyCoords=[[0.25,0],[0.75,0],[1,0.25],[1,0.75],[0.75,1],[0.25,1],[0,0.75],[0,0.25]];polyline=0;rounded=0;sketch=0;strokeWidth=1;gradientColor=none;fillColor=#e2ebf3;" parent="1" vertex="1">
                    <mxGeometry x="211" y="54.5" width="18" height="18" as="geometry"/>
                </mxCell>
                <mxCell id="CqRwOnlm2M2Rv3KDCL8K-142" value="" style="endArrow=classic;html=1;sketch=0;rounded=1;strokeColor=#82b366;dashed=1;fillColor=#d5e8d4;entryX=0;entryY=0.75;entryDx=0;entryDy=0;" parent="1" target="41" edge="1">
                    <mxGeometry width="50" height="50" relative="1" as="geometry">
                        <mxPoint x="169" y="143" as="sourcePoint"/>
                        <mxPoint x="198" y="127.50000000000006" as="targetPoint"/>
                    </mxGeometry>
                </mxCell>
                <mxCell id="CqRwOnlm2M2Rv3KDCL8K-143" value="(1)" style="text;html=1;align=center;verticalAlign=middle;resizable=0;points=[];autosize=1;strokeColor=none;fillColor=none;" parent="1" vertex="1">
                    <mxGeometry x="273" y="37" width="30" height="20" as="geometry"/>
                </mxCell>
                <mxCell id="CqRwOnlm2M2Rv3KDCL8K-144" value="(2)" style="text;html=1;align=center;verticalAlign=middle;resizable=0;points=[];autosize=1;strokeColor=none;fillColor=none;" parent="1" vertex="1">
                    <mxGeometry x="273" y="101" width="30" height="20" as="geometry"/>
                </mxCell>
                <mxCell id="CqRwOnlm2M2Rv3KDCL8K-145" value="(3)" style="text;html=1;align=center;verticalAlign=middle;resizable=0;points=[];autosize=1;strokeColor=none;fillColor=none;" parent="1" vertex="1">
                    <mxGeometry x="273" y="165" width="30" height="20" as="geometry"/>
                </mxCell>
                <mxCell id="CqRwOnlm2M2Rv3KDCL8K-146" value="(4)" style="text;html=1;align=center;verticalAlign=middle;resizable=0;points=[];autosize=1;strokeColor=none;fillColor=none;" parent="1" vertex="1">
                    <mxGeometry x="273" y="227" width="30" height="20" as="geometry"/>
                </mxCell>
                <mxCell id="CqRwOnlm2M2Rv3KDCL8K-147" value="a" style="text;html=1;align=center;verticalAlign=middle;resizable=0;points=[];autosize=1;strokeColor=none;fillColor=none;strokeWidth=1;" parent="1" vertex="1">
                    <mxGeometry x="210" y="15.5" width="20" height="20" as="geometry"/>
                </mxCell>
                <mxCell id="CqRwOnlm2M2Rv3KDCL8K-161" value="9" style="text;html=1;align=center;verticalAlign=middle;resizable=0;points=[];autosize=1;strokeColor=none;fillColor=none;fontSize=11;fontFamily=Helvetica;" parent="1" vertex="1">
                    <mxGeometry x="235" y="28.5" width="20" height="20" as="geometry"/>
                </mxCell>
                <mxCell id="CqRwOnlm2M2Rv3KDCL8K-162" value="4" style="text;html=1;align=center;verticalAlign=middle;resizable=0;points=[];autosize=1;strokeColor=none;fillColor=none;fontSize=11;fontFamily=Helvetica;" parent="1" vertex="1">
                    <mxGeometry x="230" y="59.5" width="20" height="20" as="geometry"/>
                </mxCell>
                <mxCell id="CqRwOnlm2M2Rv3KDCL8K-223" style="edgeStyle=none;rounded=1;sketch=0;orthogonalLoop=1;jettySize=auto;html=1;strokeColor=#ACB5C2;dashed=1;endArrow=none;endFill=0;" parent="1" source="CqRwOnlm2M2Rv3KDCL8K-225" edge="1">
                    <mxGeometry relative="1" as="geometry">
                        <mxPoint x="221" y="122" as="targetPoint"/>
                    </mxGeometry>
                </mxCell>
                <mxCell id="CqRwOnlm2M2Rv3KDCL8K-224" style="edgeStyle=none;rounded=1;sketch=0;orthogonalLoop=1;jettySize=auto;html=1;entryX=0.197;entryY=0.014;entryDx=0;entryDy=0;entryPerimeter=0;dashed=1;endArrow=none;endFill=0;strokeColor=#ACB5C2;" parent="1" source="CqRwOnlm2M2Rv3KDCL8K-225" target="CqRwOnlm2M2Rv3KDCL8K-226" edge="1">
                    <mxGeometry relative="1" as="geometry"/>
                </mxCell>
                <mxCell id="CqRwOnlm2M2Rv3KDCL8K-225" value="" style="verticalLabelPosition=bottom;verticalAlign=top;html=1;shape=mxgraph.basic.polygon;polyCoords=[[0.25,0],[0.75,0],[1,0.25],[1,0.75],[0.75,1],[0.25,1],[0,0.75],[0,0.25]];polyline=0;rounded=0;sketch=0;strokeWidth=1;gradientColor=none;fillColor=#e2ebf3;" parent="1" vertex="1">
                    <mxGeometry x="211" y="83" width="18" height="18" as="geometry"/>
                </mxCell>
                <mxCell id="CqRwOnlm2M2Rv3KDCL8K-226" value="" style="verticalLabelPosition=bottom;verticalAlign=top;html=1;shape=mxgraph.basic.polygon;polyCoords=[[0.25,0],[0.75,0],[1,0.25],[1,0.75],[0.75,1],[0.25,1],[0,0.75],[0,0.25]];polyline=0;rounded=0;sketch=0;strokeWidth=1;gradientColor=none;fillColor=#e2ebf3;" parent="1" vertex="1">
                    <mxGeometry x="251" y="119" width="18" height="18" as="geometry"/>
                </mxCell>
                <mxCell id="CqRwOnlm2M2Rv3KDCL8K-228" value="" style="verticalLabelPosition=bottom;verticalAlign=top;html=1;shape=mxgraph.basic.polygon;polyCoords=[[0.25,0],[0.75,0],[1,0.25],[1,0.75],[0.75,1],[0.25,1],[0,0.75],[0,0.25]];polyline=0;rounded=0;sketch=0;strokeWidth=1;gradientColor=none;fillColor=#e2ebf3;" parent="1" vertex="1">
                    <mxGeometry x="211" y="119" width="18" height="18" as="geometry"/>
                </mxCell>
                <mxCell id="CqRwOnlm2M2Rv3KDCL8K-230" value="c" style="text;html=1;align=center;verticalAlign=middle;resizable=0;points=[];autosize=1;strokeColor=none;fillColor=none;" parent="1" vertex="1">
                    <mxGeometry x="250" y="52.5" width="20" height="20" as="geometry"/>
                </mxCell>
                <mxCell id="CqRwOnlm2M2Rv3KDCL8K-231" value="b" style="text;html=1;align=center;verticalAlign=middle;resizable=0;points=[];autosize=1;strokeColor=none;fillColor=none;" parent="1" vertex="1">
                    <mxGeometry x="210" y="53.5" width="20" height="20" as="geometry"/>
                </mxCell>
                <mxCell id="CqRwOnlm2M2Rv3KDCL8K-233" value="13" style="text;html=1;align=center;verticalAlign=middle;resizable=0;points=[];autosize=1;strokeColor=none;fillColor=none;fontSize=11;fontFamily=Helvetica;" parent="1" vertex="1">
                    <mxGeometry x="230" y="95" width="30" height="20" as="geometry"/>
                </mxCell>
                <mxCell id="CqRwOnlm2M2Rv3KDCL8K-236" style="edgeStyle=none;rounded=1;sketch=0;orthogonalLoop=1;jettySize=auto;html=1;entryX=0.197;entryY=0.014;entryDx=0;entryDy=0;entryPerimeter=0;dashed=1;endArrow=none;endFill=0;strokeColor=#ACB5C2;" parent="1" source="CqRwOnlm2M2Rv3KDCL8K-237" target="CqRwOnlm2M2Rv3KDCL8K-238" edge="1">
                    <mxGeometry relative="1" as="geometry"/>
                </mxCell>
                <mxCell id="CqRwOnlm2M2Rv3KDCL8K-237" value="" style="verticalLabelPosition=bottom;verticalAlign=top;html=1;shape=mxgraph.basic.polygon;polyCoords=[[0.25,0],[0.75,0],[1,0.25],[1,0.75],[0.75,1],[0.25,1],[0,0.75],[0,0.25]];polyline=0;rounded=0;sketch=0;strokeWidth=1;gradientColor=none;fillColor=#e2ebf3;" parent="1" vertex="1">
                    <mxGeometry x="211" y="148" width="18" height="18" as="geometry"/>
                </mxCell>
                <mxCell id="CqRwOnlm2M2Rv3KDCL8K-238" value="" style="verticalLabelPosition=bottom;verticalAlign=top;html=1;shape=mxgraph.basic.polygon;polyCoords=[[0.25,0],[0.75,0],[1,0.25],[1,0.75],[0.75,1],[0.25,1],[0,0.75],[0,0.25]];polyline=0;rounded=0;sketch=0;strokeWidth=1;gradientColor=none;fillColor=#e2ebf3;" parent="1" vertex="1">
                    <mxGeometry x="251" y="184" width="18" height="18" as="geometry"/>
                </mxCell>
                <mxCell id="CqRwOnlm2M2Rv3KDCL8K-239" style="edgeStyle=none;rounded=1;sketch=0;orthogonalLoop=1;jettySize=auto;html=1;entryX=-0.011;entryY=0.483;entryDx=0;entryDy=0;entryPerimeter=0;dashed=1;endArrow=none;endFill=0;strokeColor=#ACB5C2;" parent="1" source="CqRwOnlm2M2Rv3KDCL8K-240" target="CqRwOnlm2M2Rv3KDCL8K-238" edge="1">
                    <mxGeometry relative="1" as="geometry"/>
                </mxCell>
                <mxCell id="CqRwOnlm2M2Rv3KDCL8K-240" value="" style="verticalLabelPosition=bottom;verticalAlign=top;html=1;shape=mxgraph.basic.polygon;polyCoords=[[0.25,0],[0.75,0],[1,0.25],[1,0.75],[0.75,1],[0.25,1],[0,0.75],[0,0.25]];polyline=0;rounded=0;sketch=0;strokeWidth=1;gradientColor=none;fillColor=#e2ebf3;" parent="1" vertex="1">
                    <mxGeometry x="211" y="184" width="18" height="18" as="geometry"/>
                </mxCell>
                <mxCell id="CqRwOnlm2M2Rv3KDCL8K-245" value="15" style="text;html=1;align=center;verticalAlign=middle;resizable=0;points=[];autosize=1;strokeColor=none;fillColor=none;fontSize=11;fontFamily=Helvetica;" parent="1" vertex="1">
                    <mxGeometry x="230" y="160" width="30" height="20" as="geometry"/>
                </mxCell>
                <mxCell id="CqRwOnlm2M2Rv3KDCL8K-246" value="10" style="text;html=1;align=center;verticalAlign=middle;resizable=0;points=[];autosize=1;strokeColor=none;fillColor=none;fontSize=11;fontFamily=Helvetica;" parent="1" vertex="1">
                    <mxGeometry x="225" y="189" width="30" height="20" as="geometry"/>
                </mxCell>
                <mxCell id="CqRwOnlm2M2Rv3KDCL8K-247" style="edgeStyle=none;rounded=1;sketch=0;orthogonalLoop=1;jettySize=auto;html=1;strokeColor=#ACB5C2;dashed=1;endArrow=none;endFill=0;" parent="1" source="CqRwOnlm2M2Rv3KDCL8K-249" edge="1">
                    <mxGeometry relative="1" as="geometry">
                        <mxPoint x="221" y="252.00000000000006" as="targetPoint"/>
                    </mxGeometry>
                </mxCell>
                <mxCell id="CqRwOnlm2M2Rv3KDCL8K-249" value="" style="verticalLabelPosition=bottom;verticalAlign=top;html=1;shape=mxgraph.basic.polygon;polyCoords=[[0.25,0],[0.75,0],[1,0.25],[1,0.75],[0.75,1],[0.25,1],[0,0.75],[0,0.25]];polyline=0;rounded=0;sketch=0;strokeWidth=1;gradientColor=none;fillColor=#e2ebf3;" parent="1" vertex="1">
                    <mxGeometry x="211" y="213" width="18" height="18" as="geometry"/>
                </mxCell>
                <mxCell id="CqRwOnlm2M2Rv3KDCL8K-250" value="" style="verticalLabelPosition=bottom;verticalAlign=top;html=1;shape=mxgraph.basic.polygon;polyCoords=[[0.25,0],[0.75,0],[1,0.25],[1,0.75],[0.75,1],[0.25,1],[0,0.75],[0,0.25]];polyline=0;rounded=0;sketch=0;strokeWidth=1;gradientColor=none;fillColor=#e2ebf3;" parent="1" vertex="1">
                    <mxGeometry x="251" y="249" width="18" height="18" as="geometry"/>
                </mxCell>
                <mxCell id="CqRwOnlm2M2Rv3KDCL8K-251" style="edgeStyle=none;rounded=1;sketch=0;orthogonalLoop=1;jettySize=auto;html=1;entryX=-0.011;entryY=0.483;entryDx=0;entryDy=0;entryPerimeter=0;dashed=1;endArrow=none;endFill=0;strokeColor=#ACB5C2;" parent="1" source="CqRwOnlm2M2Rv3KDCL8K-252" target="CqRwOnlm2M2Rv3KDCL8K-250" edge="1">
                    <mxGeometry relative="1" as="geometry"/>
                </mxCell>
                <mxCell id="CqRwOnlm2M2Rv3KDCL8K-252" value="" style="verticalLabelPosition=bottom;verticalAlign=top;html=1;shape=mxgraph.basic.polygon;polyCoords=[[0.25,0],[0.75,0],[1,0.25],[1,0.75],[0.75,1],[0.25,1],[0,0.75],[0,0.25]];polyline=0;rounded=0;sketch=0;strokeWidth=1;gradientColor=none;fillColor=#e2ebf3;" parent="1" vertex="1">
                    <mxGeometry x="211" y="249" width="18" height="18" as="geometry"/>
                </mxCell>
                <mxCell id="CqRwOnlm2M2Rv3KDCL8K-257" value="15" style="text;html=1;align=center;verticalAlign=middle;resizable=0;points=[];autosize=1;strokeColor=none;fillColor=none;fontSize=11;fontFamily=Helvetica;" parent="1" vertex="1">
                    <mxGeometry x="198" y="230" width="30" height="20" as="geometry"/>
                </mxCell>
                <mxCell id="CqRwOnlm2M2Rv3KDCL8K-258" value="13" style="text;html=1;align=center;verticalAlign=middle;resizable=0;points=[];autosize=1;strokeColor=none;fillColor=none;fontSize=11;fontFamily=Helvetica;" parent="1" vertex="1">
                    <mxGeometry x="225" y="254" width="30" height="20" as="geometry"/>
                </mxCell>
                <mxCell id="CqRwOnlm2M2Rv3KDCL8K-260" value="" style="verticalLabelPosition=bottom;verticalAlign=top;html=1;shape=mxgraph.basic.polygon;polyCoords=[[0.25,0],[0.75,0],[1,0.25],[1,0.75],[0.75,1],[0.25,1],[0,0.75],[0,0.25]];polyline=0;rounded=0;sketch=0;fillColor=#e2ebf3;gradientColor=none;strokeColor=#666666;" parent="1" vertex="1">
                    <mxGeometry x="305" y="72.5" width="18" height="18" as="geometry"/>
                </mxCell>
                <mxCell id="CqRwOnlm2M2Rv3KDCL8K-261" value="" style="verticalLabelPosition=bottom;verticalAlign=top;html=1;shape=mxgraph.basic.polygon;polyCoords=[[0.25,0],[0.75,0],[1,0.25],[1,0.75],[0.75,1],[0.25,1],[0,0.75],[0,0.25]];polyline=0;rounded=0;sketch=0;fillColor=#e2ebf3;gradientColor=none;strokeColor=#666666;" parent="1" vertex="1">
                    <mxGeometry x="305" y="138" width="18" height="18" as="geometry"/>
                </mxCell>
                <mxCell id="CqRwOnlm2M2Rv3KDCL8K-262" value="" style="verticalLabelPosition=bottom;verticalAlign=top;html=1;shape=mxgraph.basic.polygon;polyCoords=[[0.25,0],[0.75,0],[1,0.25],[1,0.75],[0.75,1],[0.25,1],[0,0.75],[0,0.25]];polyline=0;rounded=0;sketch=0;fillColor=#e2ebf3;gradientColor=none;strokeColor=#666666;" parent="1" vertex="1">
                    <mxGeometry x="305" y="206" width="18" height="18" as="geometry"/>
                </mxCell>
                <mxCell id="CqRwOnlm2M2Rv3KDCL8K-264" value="a" style="text;html=1;align=center;verticalAlign=middle;resizable=0;points=[];autosize=1;strokeColor=none;fillColor=none;" parent="1" vertex="1">
                    <mxGeometry x="304" y="70.5" width="20" height="20" as="geometry"/>
                </mxCell>
                <mxCell id="XAXn_dpVB3Lyqn0WU6YM-12" style="edgeStyle=none;rounded=0;orthogonalLoop=1;jettySize=auto;html=1;entryX=-0.012;entryY=0.514;entryDx=0;entryDy=0;entryPerimeter=0;dashed=1;fillColor=#fff2cc;strokeColor=#d6b656;" parent="1" source="CqRwOnlm2M2Rv3KDCL8K-265" target="CqRwOnlm2M2Rv3KDCL8K-326" edge="1">
                    <mxGeometry relative="1" as="geometry"/>
                </mxCell>
                <mxCell id="CqRwOnlm2M2Rv3KDCL8K-265" value="c" style="text;html=1;align=center;verticalAlign=middle;resizable=0;points=[];autosize=1;strokeColor=none;fillColor=none;" parent="1" vertex="1">
                    <mxGeometry x="304" y="205" width="20" height="20" as="geometry"/>
                </mxCell>
                <mxCell id="XAXn_dpVB3Lyqn0WU6YM-18" style="edgeStyle=none;rounded=0;orthogonalLoop=1;jettySize=auto;html=1;entryX=-0.046;entryY=0.515;entryDx=0;entryDy=0;entryPerimeter=0;endArrow=classic;endFill=1;fillColor=#fff2cc;strokeColor=#d6b656;dashed=1;" parent="1" source="CqRwOnlm2M2Rv3KDCL8K-266" target="CqRwOnlm2M2Rv3KDCL8K-322" edge="1">
                    <mxGeometry relative="1" as="geometry"/>
                </mxCell>
                <mxCell id="CqRwOnlm2M2Rv3KDCL8K-266" value="b" style="text;html=1;align=center;verticalAlign=middle;resizable=0;points=[];autosize=1;strokeColor=none;fillColor=none;" parent="1" vertex="1">
                    <mxGeometry x="304" y="137" width="20" height="20" as="geometry"/>
                </mxCell>
                <mxCell id="CqRwOnlm2M2Rv3KDCL8K-289" value="VN Request" style="text;html=1;align=center;verticalAlign=middle;resizable=0;points=[];autosize=1;strokeColor=none;fillColor=none;fontSize=11;fontFamily=Helvetica;" parent="1" vertex="1">
                    <mxGeometry x="59" y="48.5" width="80" height="20" as="geometry"/>
                </mxCell>
                <mxCell id="CqRwOnlm2M2Rv3KDCL8K-290" value="Bandwidth Matrix" style="text;html=1;align=center;verticalAlign=middle;resizable=0;points=[];autosize=1;strokeColor=none;fillColor=none;fontSize=11;fontFamily=Helvetica;" parent="1" vertex="1">
                    <mxGeometry x="48.5" y="227" width="110" height="20" as="geometry"/>
                </mxCell>
                <mxCell id="CqRwOnlm2M2Rv3KDCL8K-292" value="Request Topology" style="text;html=1;align=center;verticalAlign=middle;resizable=0;points=[];autosize=1;strokeColor=none;fillColor=none;fontSize=11;fontFamily=Bahnschrift;" parent="1" vertex="1">
                    <mxGeometry x="108" y="1" width="100" height="20" as="geometry"/>
                </mxCell>
                <mxCell id="CqRwOnlm2M2Rv3KDCL8K-293" value="CPU&amp;nbsp;" style="text;html=1;align=center;verticalAlign=middle;resizable=0;points=[];autosize=1;strokeColor=none;fillColor=none;fontSize=11;fontFamily=Helvetica;" parent="1" vertex="1">
                    <mxGeometry x="13" y="84" width="40" height="20" as="geometry"/>
                </mxCell>
                <mxCell id="CqRwOnlm2M2Rv3KDCL8K-294" value="" style="endArrow=classic;html=1;rounded=1;dashed=1;sketch=0;fontFamily=Helvetica;fontSize=11;strokeColor=#ACB5C2;" parent="1" edge="1">
                    <mxGeometry width="50" height="50" relative="1" as="geometry">
                        <mxPoint x="33" y="131" as="sourcePoint"/>
                        <mxPoint x="33" y="100" as="targetPoint"/>
                    </mxGeometry>
                </mxCell>
                <mxCell id="CqRwOnlm2M2Rv3KDCL8K-295" value="" style="endArrow=classic;html=1;rounded=1;dashed=1;sketch=0;fontFamily=Helvetica;fontSize=11;strokeColor=#ACB5C2;exitX=0;exitY=0.5;exitDx=0;exitDy=0;entryX=0.993;entryY=0.46;entryDx=0;entryDy=0;entryPerimeter=0;fillColor=#eeeeee;" parent="1" edge="1">
                    <mxGeometry width="50" height="50" relative="1" as="geometry">
                        <mxPoint x="75.00000000000006" y="93.99999999999994" as="sourcePoint"/>
                        <mxPoint x="46.72000000000003" y="94.19999999999999" as="targetPoint"/>
                    </mxGeometry>
                </mxCell>
                <mxCell id="CqRwOnlm2M2Rv3KDCL8K-296" value="10" style="text;html=1;align=center;verticalAlign=middle;resizable=0;points=[];autosize=1;strokeColor=none;fillColor=none;fontSize=11;fontFamily=Helvetica;" parent="1" vertex="1">
                    <mxGeometry x="198" y="101" width="30" height="20" as="geometry"/>
                </mxCell>
                <mxCell id="CqRwOnlm2M2Rv3KDCL8K-301" value="" style="ellipse;whiteSpace=wrap;html=1;rounded=0;dashed=1;sketch=0;fontFamily=Helvetica;fontSize=11;strokeWidth=1;strokeColor=none;" parent="1" vertex="1">
                    <mxGeometry x="342" y="22.5" width="100" height="114.5" as="geometry"/>
                </mxCell>
                <mxCell id="CqRwOnlm2M2Rv3KDCL8K-302" value="" style="shape=image;html=1;verticalAlign=top;verticalLabelPosition=bottom;labelBackgroundColor=#ffffff;imageAspect=0;aspect=fixed;image=https://cdn0.iconfinder.com/data/icons/phosphor-bold-vol-3-1/256/hexagon-duotone-128.png;rounded=0;dashed=1;sketch=0;fontFamily=Helvetica;fontSize=11;strokeColor=default;strokeWidth=1;fillColor=none;gradientColor=none;" parent="1" vertex="1">
                    <mxGeometry x="367" y="113" width="18" height="18" as="geometry"/>
                </mxCell>
                <mxCell id="CqRwOnlm2M2Rv3KDCL8K-303" value="" style="shape=image;html=1;verticalAlign=top;verticalLabelPosition=bottom;labelBackgroundColor=#ffffff;imageAspect=0;aspect=fixed;image=https://cdn0.iconfinder.com/data/icons/phosphor-bold-vol-3-1/256/hexagon-duotone-128.png;rounded=0;dashed=1;sketch=0;fontFamily=Helvetica;fontSize=11;strokeColor=default;strokeWidth=1;fillColor=none;gradientColor=none;" parent="1" vertex="1">
                    <mxGeometry x="404" y="107.5" width="17.5" height="17.5" as="geometry"/>
                </mxCell>
                <mxCell id="CqRwOnlm2M2Rv3KDCL8K-304" value="" style="shape=image;html=1;verticalAlign=top;verticalLabelPosition=bottom;labelBackgroundColor=#ffffff;imageAspect=0;aspect=fixed;image=https://cdn0.iconfinder.com/data/icons/phosphor-bold-vol-3-1/256/hexagon-duotone-128.png;rounded=0;dashed=1;sketch=0;fontFamily=Helvetica;fontSize=11;strokeColor=default;strokeWidth=1;fillColor=none;gradientColor=none;" parent="1" vertex="1">
                    <mxGeometry x="367" y="165" width="18" height="18" as="geometry"/>
                </mxCell>
                <mxCell id="CqRwOnlm2M2Rv3KDCL8K-305" value="" style="shape=image;html=1;verticalAlign=top;verticalLabelPosition=bottom;labelBackgroundColor=#ffffff;imageAspect=0;aspect=fixed;image=https://cdn0.iconfinder.com/data/icons/phosphor-bold-vol-3-1/256/hexagon-duotone-128.png;rounded=0;dashed=1;sketch=0;fontFamily=Helvetica;fontSize=11;strokeColor=default;strokeWidth=1;fillColor=none;gradientColor=none;" parent="1" vertex="1">
                    <mxGeometry x="402" y="171" width="18" height="18" as="geometry"/>
                </mxCell>
                <mxCell id="CqRwOnlm2M2Rv3KDCL8K-311" value="" style="verticalLabelPosition=bottom;verticalAlign=top;html=1;shape=mxgraph.basic.polygon;polyCoords=[[0.25,0],[0.75,0],[1,0.25],[1,0.75],[0.75,1],[0.25,1],[0,0.75],[0,0.25]];polyline=0;rounded=0;sketch=0;fillColor=#fcebdd;strokeColor=none;" parent="1" vertex="1">
                    <mxGeometry x="362" y="49.5" width="18" height="18" as="geometry"/>
                </mxCell>
                <mxCell id="CqRwOnlm2M2Rv3KDCL8K-312" value="A" style="text;html=1;align=center;verticalAlign=middle;resizable=0;points=[];autosize=1;strokeColor=none;fillColor=none;" parent="1" vertex="1">
                    <mxGeometry x="361" y="48.5" width="20" height="20" as="geometry"/>
                </mxCell>
                <mxCell id="CqRwOnlm2M2Rv3KDCL8K-317" value="" style="verticalLabelPosition=bottom;verticalAlign=top;html=1;shape=mxgraph.basic.polygon;polyCoords=[[0.25,0],[0.75,0],[1,0.25],[1,0.75],[0.75,1],[0.25,1],[0,0.75],[0,0.25]];polyline=0;rounded=0;sketch=0;fillColor=#fcebdd;strokeColor=none;" parent="1" vertex="1">
                    <mxGeometry x="402" y="49.5" width="18" height="18" as="geometry"/>
                </mxCell>
                <mxCell id="CqRwOnlm2M2Rv3KDCL8K-318" value="B" style="text;html=1;align=center;verticalAlign=middle;resizable=0;points=[];autosize=1;strokeColor=none;fillColor=none;" parent="1" vertex="1">
                    <mxGeometry x="401" y="48.5" width="20" height="20" as="geometry"/>
                </mxCell>
                <mxCell id="CqRwOnlm2M2Rv3KDCL8K-319" value="" style="verticalLabelPosition=bottom;verticalAlign=top;html=1;shape=mxgraph.basic.polygon;polyCoords=[[0.25,0],[0.75,0],[1,0.25],[1,0.75],[0.75,1],[0.25,1],[0,0.75],[0,0.25]];polyline=0;rounded=0;sketch=0;fillColor=#fcebdd;strokeColor=none;" parent="1" vertex="1">
                    <mxGeometry x="362" y="73.5" width="18" height="18" as="geometry"/>
                </mxCell>
                <mxCell id="CqRwOnlm2M2Rv3KDCL8K-320" value="D" style="text;html=1;align=center;verticalAlign=middle;resizable=0;points=[];autosize=1;strokeColor=none;fillColor=none;" parent="1" vertex="1">
                    <mxGeometry x="361" y="72.5" width="20" height="20" as="geometry"/>
                </mxCell>
                <mxCell id="CqRwOnlm2M2Rv3KDCL8K-321" value="" style="verticalLabelPosition=bottom;verticalAlign=top;html=1;shape=mxgraph.basic.polygon;polyCoords=[[0.25,0],[0.75,0],[1,0.25],[1,0.75],[0.75,1],[0.25,1],[0,0.75],[0,0.25]];polyline=0;rounded=0;sketch=0;fillColor=#fcebdd;strokeColor=none;" parent="1" vertex="1">
                    <mxGeometry x="362" y="210" width="18" height="18" as="geometry"/>
                </mxCell>
                <mxCell id="CqRwOnlm2M2Rv3KDCL8K-322" value="B" style="text;html=1;align=center;verticalAlign=middle;resizable=0;points=[];autosize=1;strokeColor=none;fillColor=none;" parent="1" vertex="1">
                    <mxGeometry x="361" y="209" width="20" height="20" as="geometry"/>
                </mxCell>
                <mxCell id="CqRwOnlm2M2Rv3KDCL8K-323" value="" style="verticalLabelPosition=bottom;verticalAlign=top;html=1;shape=mxgraph.basic.polygon;polyCoords=[[0.25,0],[0.75,0],[1,0.25],[1,0.75],[0.75,1],[0.25,1],[0,0.75],[0,0.25]];polyline=0;rounded=0;sketch=0;fillColor=#fcebdd;strokeColor=none;" parent="1" vertex="1">
                    <mxGeometry x="394" y="210" width="18" height="18" as="geometry"/>
                </mxCell>
                <mxCell id="CqRwOnlm2M2Rv3KDCL8K-324" value="E" style="text;html=1;align=center;verticalAlign=middle;resizable=0;points=[];autosize=1;strokeColor=none;fillColor=none;" parent="1" vertex="1">
                    <mxGeometry x="393" y="209" width="20" height="20" as="geometry"/>
                </mxCell>
                <mxCell id="CqRwOnlm2M2Rv3KDCL8K-325" value="" style="verticalLabelPosition=bottom;verticalAlign=top;html=1;shape=mxgraph.basic.polygon;polyCoords=[[0.25,0],[0.75,0],[1,0.25],[1,0.75],[0.75,1],[0.25,1],[0,0.75],[0,0.25]];polyline=0;rounded=0;sketch=0;fillColor=#fcebdd;strokeColor=none;" parent="1" vertex="1">
                    <mxGeometry x="362" y="233" width="18" height="18" as="geometry"/>
                </mxCell>
                <mxCell id="CqRwOnlm2M2Rv3KDCL8K-326" value="C" style="text;html=1;align=center;verticalAlign=middle;resizable=0;points=[];autosize=1;strokeColor=none;fillColor=none;" parent="1" vertex="1">
                    <mxGeometry x="361" y="232" width="20" height="20" as="geometry"/>
                </mxCell>
                <mxCell id="XAXn_dpVB3Lyqn0WU6YM-15" style="edgeStyle=none;rounded=0;orthogonalLoop=1;jettySize=auto;html=1;endArrow=none;endFill=0;fillColor=#f5f5f5;strokeColor=#666666;dashed=1;exitX=0.805;exitY=-0.052;exitDx=0;exitDy=0;exitPerimeter=0;entryX=0.557;entryY=0.058;entryDx=0;entryDy=0;entryPerimeter=0;" parent="1" source="XAXn_dpVB3Lyqn0WU6YM-19" target="CqRwOnlm2M2Rv3KDCL8K-329" edge="1">
                    <mxGeometry relative="1" as="geometry">
                        <mxPoint x="376" y="160" as="targetPoint"/>
                    </mxGeometry>
                </mxCell>
                <mxCell id="XAXn_dpVB3Lyqn0WU6YM-16" style="edgeStyle=none;rounded=0;orthogonalLoop=1;jettySize=auto;html=1;entryX=0.492;entryY=0.068;entryDx=0;entryDy=0;entryPerimeter=0;endArrow=none;endFill=0;fillColor=#f5f5f5;strokeColor=#666666;dashed=1;exitX=0.72;exitY=0.947;exitDx=0;exitDy=0;exitPerimeter=0;" parent="1" source="CqRwOnlm2M2Rv3KDCL8K-327" target="CqRwOnlm2M2Rv3KDCL8K-330" edge="1">
                    <mxGeometry relative="1" as="geometry"/>
                </mxCell>
                <mxCell id="CqRwOnlm2M2Rv3KDCL8K-327" value="A" style="text;html=1;align=center;verticalAlign=middle;resizable=0;points=[];autosize=1;strokeColor=none;fillColor=none;fontSize=11;fontFamily=Helvetica;" parent="1" vertex="1">
                    <mxGeometry x="366" y="110.5" width="20" height="20" as="geometry"/>
                </mxCell>
                <mxCell id="XAXn_dpVB3Lyqn0WU6YM-17" style="edgeStyle=none;rounded=0;orthogonalLoop=1;jettySize=auto;html=1;endArrow=none;endFill=0;fillColor=#f5f5f5;strokeColor=#666666;dashed=1;exitX=0.478;exitY=0.931;exitDx=0;exitDy=0;exitPerimeter=0;entryX=0.75;entryY=0.072;entryDx=0;entryDy=0;entryPerimeter=0;" parent="1" source="CqRwOnlm2M2Rv3KDCL8K-328" target="CqRwOnlm2M2Rv3KDCL8K-329" edge="1">
                    <mxGeometry relative="1" as="geometry">
                        <mxPoint x="376" y="160" as="targetPoint"/>
                    </mxGeometry>
                </mxCell>
                <mxCell id="CqRwOnlm2M2Rv3KDCL8K-328" value="B" style="text;html=1;align=center;verticalAlign=middle;resizable=0;points=[];autosize=1;strokeColor=none;fillColor=none;fontSize=11;fontFamily=Helvetica;" parent="1" vertex="1">
                    <mxGeometry x="403" y="106" width="20" height="20" as="geometry"/>
                </mxCell>
                <mxCell id="CqRwOnlm2M2Rv3KDCL8K-329" value="C" style="text;html=1;align=center;verticalAlign=middle;resizable=0;points=[];autosize=1;strokeColor=none;fillColor=none;fontSize=11;fontFamily=Helvetica;" parent="1" vertex="1">
                    <mxGeometry x="365" y="164" width="20" height="20" as="geometry"/>
                </mxCell>
                <mxCell id="CqRwOnlm2M2Rv3KDCL8K-330" value="B" style="text;html=1;align=center;verticalAlign=middle;resizable=0;points=[];autosize=1;strokeColor=none;fillColor=none;fontSize=11;fontFamily=Helvetica;" parent="1" vertex="1">
                    <mxGeometry x="401" y="170" width="20" height="20" as="geometry"/>
                </mxCell>
                <mxCell id="XAXn_dpVB3Lyqn0WU6YM-19" value="15" style="text;html=1;align=center;verticalAlign=middle;resizable=0;points=[];autosize=1;strokeColor=none;fillColor=none;" parent="1" vertex="1">
                    <mxGeometry x="352" y="132" width="30" height="20" as="geometry"/>
                </mxCell>
                <mxCell id="XAXn_dpVB3Lyqn0WU6YM-20" value="14" style="text;html=1;align=center;verticalAlign=middle;resizable=0;points=[];autosize=1;strokeColor=none;fillColor=none;" parent="1" vertex="1">
                    <mxGeometry x="395" y="126" width="30" height="20" as="geometry"/>
                </mxCell>
                <mxCell id="XAXn_dpVB3Lyqn0WU6YM-21" value="15" style="text;html=1;align=center;verticalAlign=middle;resizable=0;points=[];autosize=1;strokeColor=none;fillColor=none;" parent="1" vertex="1">
                    <mxGeometry x="396" y="152" width="30" height="20" as="geometry"/>
                </mxCell>
                <mxCell id="13" value="6" style="text;html=1;align=center;verticalAlign=middle;resizable=0;points=[];autosize=1;strokeColor=none;fillColor=none;fontSize=10;fontColor=#000000;" parent="1" vertex="1">
                    <mxGeometry x="203" y="35.5" width="20" height="20" as="geometry"/>
                </mxCell>
                <mxCell id="21" value="" style="verticalLabelPosition=bottom;verticalAlign=top;html=1;shape=mxgraph.basic.polygon;polyCoords=[[0.25,0],[0.75,0],[1,0.25],[1,0.75],[0.75,1],[0.25,1],[0,0.75],[0,0.25]];polyline=0;rounded=0;sketch=0;" parent="1" vertex="1">
                    <mxGeometry x="80" y="110" width="18" height="18" as="geometry"/>
                </mxCell>
                <mxCell id="23" value="" style="verticalLabelPosition=bottom;verticalAlign=top;html=1;shape=mxgraph.basic.polygon;polyCoords=[[0.25,0],[0.75,0],[1,0.25],[1,0.75],[0.75,1],[0.25,1],[0,0.75],[0,0.25]];polyline=0;rounded=0;sketch=0;" parent="1" vertex="1">
                    <mxGeometry x="49.5" y="197" width="18" height="18" as="geometry"/>
                </mxCell>
                <mxCell id="24" value="" style="verticalLabelPosition=bottom;verticalAlign=top;html=1;shape=mxgraph.basic.polygon;polyCoords=[[0.25,0],[0.75,0],[1,0.25],[1,0.75],[0.75,1],[0.25,1],[0,0.75],[0,0.25]];polyline=0;rounded=0;sketch=0;" parent="1" vertex="1">
                    <mxGeometry x="49.5" y="167" width="18" height="18" as="geometry"/>
                </mxCell>
                <mxCell id="25" value="" style="verticalLabelPosition=bottom;verticalAlign=top;html=1;shape=mxgraph.basic.polygon;polyCoords=[[0.25,0],[0.75,0],[1,0.25],[1,0.75],[0.75,1],[0.25,1],[0,0.75],[0,0.25]];polyline=0;rounded=0;sketch=0;" parent="1" vertex="1">
                    <mxGeometry x="49.5" y="138" width="18" height="18" as="geometry"/>
                </mxCell>
                <mxCell id="26" value="" style="verticalLabelPosition=bottom;verticalAlign=top;html=1;shape=mxgraph.basic.polygon;polyCoords=[[0.25,0],[0.75,0],[1,0.25],[1,0.75],[0.75,1],[0.25,1],[0,0.75],[0,0.25]];polyline=0;rounded=0;sketch=0;" parent="1" vertex="1">
                    <mxGeometry x="140.5" y="110" width="18" height="18" as="geometry"/>
                </mxCell>
                <mxCell id="27" value="" style="verticalLabelPosition=bottom;verticalAlign=top;html=1;shape=mxgraph.basic.polygon;polyCoords=[[0.25,0],[0.75,0],[1,0.25],[1,0.75],[0.75,1],[0.25,1],[0,0.75],[0,0.25]];polyline=0;rounded=0;sketch=0;" parent="1" vertex="1">
                    <mxGeometry x="110" y="110" width="18" height="18" as="geometry"/>
                </mxCell>
                <mxCell id="29" value="a" style="text;html=1;align=center;verticalAlign=middle;resizable=0;points=[];autosize=1;strokeColor=none;fillColor=none;strokeWidth=1;" parent="1" vertex="1">
                    <mxGeometry x="79" y="109" width="20" height="20" as="geometry"/>
                </mxCell>
                <mxCell id="30" value="b" style="text;html=1;align=center;verticalAlign=middle;resizable=0;points=[];autosize=1;strokeColor=none;fillColor=none;strokeWidth=1;" parent="1" vertex="1">
                    <mxGeometry x="109" y="109" width="20" height="20" as="geometry"/>
                </mxCell>
                <mxCell id="31" value="c" style="text;html=1;align=center;verticalAlign=middle;resizable=0;points=[];autosize=1;strokeColor=none;fillColor=none;strokeWidth=1;" parent="1" vertex="1">
                    <mxGeometry x="139.5" y="109" width="20" height="20" as="geometry"/>
                </mxCell>
                <mxCell id="32" value="a" style="text;html=1;align=center;verticalAlign=middle;resizable=0;points=[];autosize=1;strokeColor=none;fillColor=none;strokeWidth=1;" parent="1" vertex="1">
                    <mxGeometry x="48.5" y="137" width="20" height="20" as="geometry"/>
                </mxCell>
                <mxCell id="33" value="b" style="text;html=1;align=center;verticalAlign=middle;resizable=0;points=[];autosize=1;strokeColor=none;fillColor=none;strokeWidth=1;" parent="1" vertex="1">
                    <mxGeometry x="48.5" y="166" width="20" height="20" as="geometry"/>
                </mxCell>
                <mxCell id="34" value="c" style="text;html=1;align=center;verticalAlign=middle;resizable=0;points=[];autosize=1;strokeColor=none;fillColor=none;strokeWidth=1;" parent="1" vertex="1">
                    <mxGeometry x="48.5" y="196" width="20" height="20" as="geometry"/>
                </mxCell>
                <mxCell id="44" value="ISP1" style="text;html=1;align=center;verticalAlign=middle;resizable=0;points=[];autosize=1;strokeColor=none;fillColor=none;" parent="1" vertex="1">
                    <mxGeometry x="398" y="77" width="40" height="20" as="geometry"/>
                </mxCell>
                <mxCell id="45" value="ISP2" style="text;html=1;align=center;verticalAlign=middle;resizable=0;points=[];autosize=1;strokeColor=none;fillColor=none;" parent="1" vertex="1">
                    <mxGeometry x="394" y="235" width="40" height="20" as="geometry"/>
                </mxCell>
                <mxCell id="46" value="3" style="whiteSpace=wrap;html=1;aspect=fixed;dashed=1;fillColor=#C4D6A0;fontColor=#ffffff;strokeColor=#2D7600;" parent="1" vertex="1">
                    <mxGeometry x="81" y="86" width="16" height="16" as="geometry"/>
                </mxCell>
                <mxCell id="47" value="7" style="whiteSpace=wrap;html=1;aspect=fixed;dashed=1;fillColor=#C4D6A0;fontColor=#ffffff;strokeColor=#2D7600;" parent="1" vertex="1">
                    <mxGeometry x="25" y="198" width="16" height="16" as="geometry"/>
                </mxCell>
                <mxCell id="48" value="9" style="whiteSpace=wrap;html=1;aspect=fixed;dashed=1;fillColor=#C4D6A0;fontColor=#ffffff;strokeColor=#2D7600;" parent="1" vertex="1">
                    <mxGeometry x="25" y="167" width="16" height="16" as="geometry"/>
                </mxCell>
                <mxCell id="49" value="3" style="whiteSpace=wrap;html=1;aspect=fixed;dashed=1;fillColor=#C4D6A0;fontColor=#ffffff;strokeColor=#2D7600;" parent="1" vertex="1">
                    <mxGeometry x="25" y="138" width="16" height="16" as="geometry"/>
                </mxCell>
                <mxCell id="50" value="7" style="whiteSpace=wrap;html=1;aspect=fixed;dashed=1;fillColor=#C4D6A0;fontColor=#ffffff;strokeColor=#2D7600;" parent="1" vertex="1">
                    <mxGeometry x="141.5" y="86" width="16" height="16" as="geometry"/>
                </mxCell>
                <mxCell id="51" value="9" style="whiteSpace=wrap;html=1;aspect=fixed;dashed=1;fillColor=#C4D6A0;fontColor=#ffffff;strokeColor=#2D7600;" parent="1" vertex="1">
                    <mxGeometry x="111" y="86" width="16" height="16" as="geometry"/>
                </mxCell>
                <mxCell id="52" value="4" style="whiteSpace=wrap;html=1;dashed=1;aspect=fixed;fillColor=#fff2cc;strokeColor=#d6b656;" parent="1" vertex="1">
                    <mxGeometry x="363" y="32" width="16" height="16" as="geometry"/>
                </mxCell>
                <mxCell id="53" value="11" style="whiteSpace=wrap;html=1;dashed=1;aspect=fixed;fillColor=#fff2cc;strokeColor=#d6b656;" parent="1" vertex="1">
                    <mxGeometry x="403" y="31.5" width="16" height="16" as="geometry"/>
                </mxCell>
                <mxCell id="54" value="5" style="whiteSpace=wrap;html=1;dashed=1;aspect=fixed;fillColor=#fff2cc;strokeColor=#d6b656;" parent="1" vertex="1">
                    <mxGeometry x="363" y="93" width="16" height="16" as="geometry"/>
                </mxCell>
                <mxCell id="55" value="10" style="whiteSpace=wrap;html=1;dashed=1;aspect=fixed;fillColor=#fff2cc;strokeColor=#d6b656;" parent="1" vertex="1">
                    <mxGeometry x="363" y="192" width="16" height="16" as="geometry"/>
                </mxCell>
                <mxCell id="56" value="8" style="whiteSpace=wrap;html=1;dashed=1;aspect=fixed;fillColor=#fff2cc;strokeColor=#d6b656;" parent="1" vertex="1">
                    <mxGeometry x="395" y="192" width="16" height="16" as="geometry"/>
                </mxCell>
                <mxCell id="57" value="9" style="whiteSpace=wrap;html=1;dashed=1;aspect=fixed;fillColor=#fff2cc;strokeColor=#d6b656;" parent="1" vertex="1">
                    <mxGeometry x="363" y="253" width="16" height="16" as="geometry"/>
                </mxCell>
                <mxCell id="58" value="3" style="whiteSpace=wrap;html=1;aspect=fixed;dashed=1;fillColor=#fff2cc;strokeColor=#d6b656;" parent="1" vertex="1">
                    <mxGeometry x="306" y="54.5" width="16" height="16" as="geometry"/>
                </mxCell>
                <mxCell id="59" value="9" style="whiteSpace=wrap;html=1;aspect=fixed;dashed=1;fillColor=#fff2cc;strokeColor=#d6b656;" parent="1" vertex="1">
                    <mxGeometry x="306" y="120" width="16" height="16" as="geometry"/>
                </mxCell>
                <mxCell id="60" value="7" style="whiteSpace=wrap;html=1;aspect=fixed;dashed=1;fillColor=#fff2cc;strokeColor=#d6b656;" parent="1" vertex="1">
                    <mxGeometry x="306" y="188" width="16" height="16" as="geometry"/>
                </mxCell>
                <mxCell id="XAXn_dpVB3Lyqn0WU6YM-10" style="edgeStyle=none;rounded=0;orthogonalLoop=1;jettySize=auto;html=1;entryX=-0.019;entryY=0.48;entryDx=0;entryDy=0;entryPerimeter=0;dashed=1;fillColor=#fff2cc;strokeColor=#d6b656;" parent="1" source="CqRwOnlm2M2Rv3KDCL8K-266" target="CqRwOnlm2M2Rv3KDCL8K-318" edge="1">
                    <mxGeometry relative="1" as="geometry"/>
                </mxCell>
                <mxCell id="XAXn_dpVB3Lyqn0WU6YM-22" value="16" style="text;html=1;align=center;verticalAlign=middle;resizable=0;points=[];autosize=1;strokeColor=none;fillColor=none;" parent="1" vertex="1">
                    <mxGeometry x="376" y="103" width="30" height="20" as="geometry"/>
                </mxCell>
                <mxCell id="XAXn_dpVB3Lyqn0WU6YM-14" style="edgeStyle=none;rounded=0;orthogonalLoop=1;jettySize=auto;html=1;endArrow=none;endFill=0;fillColor=#f5f5f5;strokeColor=#666666;exitX=1.018;exitY=0.501;exitDx=0;exitDy=0;exitPerimeter=0;" parent="1" source="CqRwOnlm2M2Rv3KDCL8K-327" target="CqRwOnlm2M2Rv3KDCL8K-328" edge="1">
                    <mxGeometry relative="1" as="geometry">
                        <mxPoint x="393" y="120.33333333333331" as="sourcePoint"/>
                    </mxGeometry>
                </mxCell>
                <mxCell id="XAXn_dpVB3Lyqn0WU6YM-23" value="13" style="text;html=1;align=center;verticalAlign=middle;resizable=0;points=[];autosize=1;strokeColor=none;fillColor=none;" parent="1" vertex="1">
                    <mxGeometry x="376" y="173" width="30" height="20" as="geometry"/>
                </mxCell>
                <mxCell id="XAXn_dpVB3Lyqn0WU6YM-13" style="edgeStyle=none;rounded=0;orthogonalLoop=1;jettySize=auto;html=1;endArrow=none;endFill=0;fillColor=#f5f5f5;strokeColor=#666666;" parent="1" source="CqRwOnlm2M2Rv3KDCL8K-329" target="CqRwOnlm2M2Rv3KDCL8K-330" edge="1">
                    <mxGeometry relative="1" as="geometry"/>
                </mxCell>
                <mxCell id="62" value="Physical Resources" style="text;html=1;align=center;verticalAlign=middle;resizable=0;points=[];autosize=1;strokeColor=none;fillColor=none;fontSize=11;fontFamily=Bahnschrift;" parent="1" vertex="1">
                    <mxGeometry x="334" y="2.5" width="110" height="20" as="geometry"/>
                </mxCell>
                <mxCell id="66" value="" style="verticalLabelPosition=bottom;verticalAlign=top;html=1;shape=mxgraph.basic.polygon;polyCoords=[[0.25,0],[0.75,0],[1,0.25],[1,0.75],[0.75,1],[0.25,1],[0,0.75],[0,0.25]];polyline=0;rounded=0;sketch=0;fillColor=#f8cecc;strokeColor=#b85450;aspect=fixed;fontFamily=Bahnschrift;" parent="1" vertex="1">
                    <mxGeometry x="117" y="293.5" width="9" height="9" as="geometry"/>
                </mxCell>
                <mxCell id="68" value="" style="shape=partialRectangle;html=1;whiteSpace=wrap;connectable=0;top=0;left=0;bottom=0;right=0;overflow=hidden;fillColor=#e2ebf3;strokeColor=#36393d;aspect=fixed;" parent="1" vertex="1">
                    <mxGeometry x="11" y="291" width="15" height="15" as="geometry">
                        <mxRectangle width="30" height="27" as="alternateBounds"/>
                    </mxGeometry>
                </mxCell>
                <mxCell id="72" value="" style="verticalLabelPosition=bottom;verticalAlign=top;html=1;shape=mxgraph.basic.polygon;polyCoords=[[0.25,0],[0.75,0],[1,0.25],[1,0.75],[0.75,1],[0.25,1],[0,0.75],[0,0.25]];polyline=0;rounded=0;sketch=0;strokeWidth=1;gradientColor=none;aspect=fixed;fontFamily=Bahnschrift;fillColor=#e2ebf3;" parent="1" vertex="1">
                    <mxGeometry x="30" y="294" width="9" height="9" as="geometry"/>
                </mxCell>
                <mxCell id="76" value="Substrate Node" style="text;align=center;verticalAlign=middle;resizable=0;points=[];autosize=1;strokeColor=none;fillColor=none;fontSize=10;fontFamily=Bahnschrift;" parent="1" vertex="1">
                    <mxGeometry x="118" y="288.12" width="90" height="20" as="geometry"/>
                </mxCell>
                <mxCell id="77" value="" style="rounded=1;whiteSpace=wrap;html=1;dashed=1;fillColor=#e1d5e7;strokeColor=none;aspect=fixed;fontFamily=Bahnschrift;" parent="1" vertex="1">
                    <mxGeometry x="218" y="288.24" width="30" height="18.51" as="geometry"/>
                </mxCell>
                <mxCell id="78" style="edgeStyle=none;rounded=1;sketch=0;orthogonalLoop=1;jettySize=auto;html=1;strokeColor=#ACB5C2;dashed=1;endArrow=none;endFill=0;entryX=0.478;entryY=-0.068;entryDx=0;entryDy=0;entryPerimeter=0;fontFamily=Bahnschrift;" parent="1" source="80" target="83" edge="1">
                    <mxGeometry relative="1" as="geometry">
                        <mxPoint x="231" y="294" as="targetPoint"/>
                    </mxGeometry>
                </mxCell>
                <mxCell id="79" style="edgeStyle=none;rounded=1;sketch=0;orthogonalLoop=1;jettySize=auto;html=1;entryX=0.197;entryY=0.014;entryDx=0;entryDy=0;entryPerimeter=0;dashed=1;endArrow=none;endFill=0;strokeColor=#ACB5C2;fontFamily=Bahnschrift;" parent="1" source="80" target="81" edge="1">
                    <mxGeometry relative="1" as="geometry"/>
                </mxCell>
                <mxCell id="80" value="" style="verticalLabelPosition=bottom;verticalAlign=top;html=1;shape=mxgraph.basic.polygon;polyCoords=[[0.25,0],[0.75,0],[1,0.25],[1,0.75],[0.75,1],[0.25,1],[0,0.75],[0,0.25]];polyline=0;rounded=0;sketch=0;strokeWidth=1;gradientColor=none;fontFamily=Bahnschrift;fillColor=#e2ebf3;" parent="1" vertex="1">
                    <mxGeometry x="221" y="291" width="5" height="5" as="geometry"/>
                </mxCell>
                <mxCell id="81" value="" style="verticalLabelPosition=bottom;verticalAlign=top;html=1;shape=mxgraph.basic.polygon;polyCoords=[[0.25,0],[0.75,0],[1,0.25],[1,0.75],[0.75,1],[0.25,1],[0,0.75],[0,0.25]];polyline=0;rounded=0;sketch=0;strokeWidth=1;gradientColor=none;fontFamily=Bahnschrift;fillColor=#e2ebf3;" parent="1" vertex="1">
                    <mxGeometry x="231" y="300" width="5" height="5" as="geometry"/>
                </mxCell>
                <mxCell id="82" style="edgeStyle=none;rounded=1;sketch=0;orthogonalLoop=1;jettySize=auto;html=1;entryX=-0.011;entryY=0.483;entryDx=0;entryDy=0;entryPerimeter=0;dashed=1;endArrow=none;endFill=0;strokeColor=#ACB5C2;fontFamily=Bahnschrift;" parent="1" source="83" target="81" edge="1">
                    <mxGeometry relative="1" as="geometry"/>
                </mxCell>
                <mxCell id="83" value="" style="verticalLabelPosition=bottom;verticalAlign=top;html=1;shape=mxgraph.basic.polygon;polyCoords=[[0.25,0],[0.75,0],[1,0.25],[1,0.75],[0.75,1],[0.25,1],[0,0.75],[0,0.25]];polyline=0;rounded=0;sketch=0;strokeWidth=1;gradientColor=none;fontFamily=Bahnschrift;fillColor=#e2ebf3;" parent="1" vertex="1">
                    <mxGeometry x="221" y="300" width="5" height="5" as="geometry"/>
                </mxCell>
                <mxCell id="89" value="Network topology" style="text;align=center;verticalAlign=middle;resizable=0;points=[];autosize=1;strokeColor=none;fillColor=none;fontSize=10;fontFamily=Bahnschrift;" parent="1" vertex="1">
                    <mxGeometry x="246" y="287.5" width="90" height="20" as="geometry"/>
                </mxCell>
                <mxCell id="90" value="" style="shape=image;html=1;verticalAlign=top;verticalLabelPosition=bottom;labelBackgroundColor=#ffffff;imageAspect=0;aspect=fixed;image=https://cdn0.iconfinder.com/data/icons/phosphor-bold-vol-3-1/256/hexagon-duotone-128.png;rounded=0;dashed=1;sketch=0;fontFamily=Bahnschrift;fontSize=11;strokeColor=default;strokeWidth=1;fillColor=none;gradientColor=none;" parent="1" vertex="1">
                    <mxGeometry x="345.5" y="289.75" width="17.5" height="17.5" as="geometry"/>
                </mxCell>
                <mxCell id="92" value="Candidate Node" style="text;align=center;verticalAlign=middle;resizable=0;points=[];autosize=1;strokeColor=none;fillColor=none;fontSize=10;fontFamily=Bahnschrift;" parent="1" vertex="1">
                    <mxGeometry x="353" y="288.24" width="90" height="20" as="geometry"/>
                </mxCell>
                <mxCell id="95" value="" style="verticalLabelPosition=bottom;verticalAlign=top;html=1;shape=mxgraph.basic.polygon;polyCoords=[[0.25,0],[0.75,0],[1,0.25],[1,0.75],[0.75,1],[0.25,1],[0,0.75],[0,0.25]];polyline=0;rounded=0;sketch=0;aspect=fixed;" parent="1" vertex="1">
                    <mxGeometry x="14" y="294" width="9" height="9" as="geometry"/>
                </mxCell>
                <mxCell id="100" value="Virtual Node" style="text;align=center;verticalAlign=middle;resizable=0;points=[];autosize=1;strokeColor=none;fillColor=none;fontSize=10;fontFamily=Bahnschrift;" parent="1" vertex="1">
                    <mxGeometry x="35" y="288.5" width="70" height="20" as="geometry"/>
                </mxCell>
                <mxCell id="XAXn_dpVB3Lyqn0WU6YM-9" style="edgeStyle=none;rounded=0;orthogonalLoop=1;jettySize=auto;html=1;entryX=0.065;entryY=0.475;entryDx=0;entryDy=0;entryPerimeter=0;dashed=1;fillColor=#fff2cc;strokeColor=#d6b656;" parent="1" source="CqRwOnlm2M2Rv3KDCL8K-264" target="CqRwOnlm2M2Rv3KDCL8K-312" edge="1">
                    <mxGeometry relative="1" as="geometry"/>
                </mxCell>
                <mxCell id="102" value="a" style="text;html=1;align=center;verticalAlign=middle;resizable=0;points=[];autosize=1;strokeColor=none;fillColor=none;strokeWidth=1;" parent="1" vertex="1">
                    <mxGeometry x="210" y="82" width="20" height="20" as="geometry"/>
                </mxCell>
                <mxCell id="103" value="a" style="text;html=1;align=center;verticalAlign=middle;resizable=0;points=[];autosize=1;strokeColor=none;fillColor=none;strokeWidth=1;" parent="1" vertex="1">
                    <mxGeometry x="210" y="146" width="20" height="20" as="geometry"/>
                </mxCell>
                <mxCell id="104" value="a" style="text;html=1;align=center;verticalAlign=middle;resizable=0;points=[];autosize=1;strokeColor=none;fillColor=none;strokeWidth=1;" parent="1" vertex="1">
                    <mxGeometry x="210" y="212" width="20" height="20" as="geometry"/>
                </mxCell>
                <mxCell id="105" value="b" style="text;html=1;align=center;verticalAlign=middle;resizable=0;points=[];autosize=1;strokeColor=none;fillColor=none;" parent="1" vertex="1">
                    <mxGeometry x="210" y="118" width="20" height="20" as="geometry"/>
                </mxCell>
                <mxCell id="106" value="b" style="text;html=1;align=center;verticalAlign=middle;resizable=0;points=[];autosize=1;strokeColor=none;fillColor=none;" parent="1" vertex="1">
                    <mxGeometry x="210" y="183" width="20" height="20" as="geometry"/>
                </mxCell>
                <mxCell id="107" value="b" style="text;html=1;align=center;verticalAlign=middle;resizable=0;points=[];autosize=1;strokeColor=none;fillColor=none;" parent="1" vertex="1">
                    <mxGeometry x="210" y="248" width="20" height="20" as="geometry"/>
                </mxCell>
                <mxCell id="108" value="c" style="text;html=1;align=center;verticalAlign=middle;resizable=0;points=[];autosize=1;strokeColor=none;fillColor=none;" parent="1" vertex="1">
                    <mxGeometry x="250" y="118" width="20" height="20" as="geometry"/>
                </mxCell>
                <mxCell id="109" value="c" style="text;html=1;align=center;verticalAlign=middle;resizable=0;points=[];autosize=1;strokeColor=none;fillColor=none;" parent="1" vertex="1">
                    <mxGeometry x="250" y="183" width="20" height="20" as="geometry"/>
                </mxCell>
                <mxCell id="110" value="c" style="text;html=1;align=center;verticalAlign=middle;resizable=0;points=[];autosize=1;strokeColor=none;fillColor=none;" parent="1" vertex="1">
                    <mxGeometry x="250" y="248" width="20" height="20" as="geometry"/>
                </mxCell>
            </root>
        </mxGraphModel>
    </diagram>
</mxfile>